<svg width="25" height="17" viewBox="0 0 25 17" fill="none" xmlns="http://www.w3.org/2000/svg">
<path d="M5 8.75C5 10.1307 3.8807 11.25 2.5 11.25C1.1193 11.25 0 10.1307 0 8.75C0 7.3693 1.1193 6.25 2.5 6.25C3.8807 6.25 5 7.3693 5 8.75ZM2.5 13.75C1.80965 13.75 1.25 14.3096 1.25 15C1.25 15.6904 1.80965 16.25 2.5 16.25C3.19035 16.25 3.75 15.6904 3.75 15C3.75 14.3096 3.19035 13.75 2.5 13.75ZM2.5 0C1.1193 0 0 1.1193 0 2.5C0 3.8807 1.1193 5 2.5 5C3.8807 5 5 3.8807 5 2.5C5 1.1193 3.8807 0 2.5 0ZM8.75 7.5C8.05965 7.5 7.5 8.05965 7.5 8.75C7.5 9.44035 8.05965 10 8.75 10C9.44035 10 10 9.44035 10 8.75C10 8.05965 9.44035 7.5 8.75 7.5ZM8.75 13.75C8.05965 13.75 7.5 14.3096 7.5 15C7.5 15.6904 8.05965 16.25 8.75 16.25C9.44035 16.25 10 15.6904 10 15C10 14.3096 9.44035 13.75 8.75 13.75ZM8.75 0C7.3693 0 6.25 1.1193 6.25 2.5C6.25 3.8807 7.3693 5 8.75 5C10.1307 5 11.25 3.8807 11.25 2.5C11.25 1.1193 10.1307 0 8.75 0ZM17.5 7.5C16.8096 7.5 16.25 8.05965 16.25 8.75C16.25 9.44035 16.8096 10 17.5 10C18.1904 10 18.75 9.44035 18.75 8.75C18.75 8.05965 18.1904 7.5 17.5 7.5ZM17.5 13.75C16.8096 13.75 16.25 14.3096 16.25 15C16.25 15.6904 16.8096 16.25 17.5 16.25C18.1904 16.25 18.75 15.6904 18.75 15C18.75 14.3096 18.1904 13.75 17.5 13.75ZM17.5 0C16.1193 0 15 1.1193 15 2.5C15 3.8807 16.1193 5 17.5 5C18.8807 5 20 3.8807 20 2.5C20 1.1193 18.8807 0 17.5 0ZM23.75 7.5C23.0596 7.5 22.5 8.05965 22.5 8.75C22.5 9.44035 23.0596 10 23.75 10C24.4404 10 25 9.44035 25 8.75C25 8.05965 24.4404 7.5 23.75 7.5ZM23.75 13.75C23.0596 13.75 22.5 14.3096 22.5 15C22.5 15.6904 23.0596 16.25 23.75 16.25C24.4404 16.25 25 15.6904 25 15C25 14.3096 24.4404 13.75 23.75 13.75ZM23.75 1.25C23.0596 1.25 22.5 1.80965 22.5 2.5C22.5 3.19035 23.0596 3.75 23.75 3.75C24.4404 3.75 25 3.19035 25 2.5C25 1.80965 24.4404 1.25 23.75 1.25Z" fill="black"/>
</svg>
