<svg width="20" height="20" viewBox="0 0 20 20" fill="none" xmlns="http://www.w3.org/2000/svg">
<path d="M10.7143 17.1429H9.28571C9.09627 17.1429 8.91459 17.2181 8.78064 17.3521C8.64668 17.486 8.57143 17.6677 8.57143 17.8571V19.2857C8.57143 19.4752 8.64668 19.6568 8.78064 19.7908C8.91459 19.9247 9.09627 20 9.28571 20H10.7143C10.9037 20 11.0854 19.9247 11.2194 19.7908C11.3533 19.6568 11.4286 19.4752 11.4286 19.2857V17.8571C11.4286 17.6677 11.3533 17.486 11.2194 17.3521C11.0854 17.2181 10.9037 17.1429 10.7143 17.1429ZM6.42857 17.1429H5C4.81056 17.1429 4.62888 17.2181 4.49492 17.3521C4.36097 17.486 4.28571 17.6677 4.28571 17.8571V19.2857C4.28571 19.4752 4.36097 19.6568 4.49492 19.7908C4.62888 19.9247 4.81056 20 5 20H6.42857C6.61801 20 6.79969 19.9247 6.93365 19.7908C7.0676 19.6568 7.14286 19.4752 7.14286 19.2857V17.8571C7.14286 17.6677 7.0676 17.486 6.93365 17.3521C6.79969 17.2181 6.61801 17.1429 6.42857 17.1429ZM15 17.1429H13.5714C13.382 17.1429 13.2003 17.2181 13.0664 17.3521C12.9324 17.486 12.8571 17.6677 12.8571 17.8571V19.2857C12.8571 19.4752 12.9324 19.6568 13.0664 19.7908C13.2003 19.9247 13.382 20 13.5714 20H15C15.1894 20 15.3711 19.9247 15.5051 19.7908C15.639 19.6568 15.7143 19.4752 15.7143 19.2857V17.8571C15.7143 17.6677 15.639 17.486 15.5051 17.3521C15.3711 17.2181 15.1894 17.1429 15 17.1429ZM19.2857 8.57143H17.8571C17.6677 8.57143 17.486 8.64668 17.3521 8.78064C17.2181 8.91459 17.1429 9.09627 17.1429 9.28571V10.7143C17.1429 10.9037 17.2181 11.0854 17.3521 11.2194C17.486 11.3533 17.6677 11.4286 17.8571 11.4286H19.2857C19.4752 11.4286 19.6568 11.3533 19.7908 11.2194C19.9247 11.0854 20 10.9037 20 10.7143V9.28571C20 9.09627 19.9247 8.91459 19.7908 8.78064C19.6568 8.64668 19.4752 8.57143 19.2857 8.57143ZM19.2857 12.8571H17.8571C17.6677 12.8571 17.486 12.9324 17.3521 13.0664C17.2181 13.2003 17.1429 13.382 17.1429 13.5714V15C17.1429 15.1894 17.2181 15.3711 17.3521 15.5051C17.486 15.639 17.6677 15.7143 17.8571 15.7143H19.2857C19.4752 15.7143 19.6568 15.639 19.7908 15.5051C19.9247 15.3711 20 15.1894 20 15V13.5714C20 13.382 19.9247 13.2003 19.7908 13.0664C19.6568 12.9324 19.4752 12.8571 19.2857 12.8571ZM19.2857 17.1429H17.8571C17.6677 17.1429 17.486 17.2181 17.3521 17.3521C17.2181 17.486 17.1429 17.6677 17.1429 17.8571V19.2857C17.1429 19.4752 17.2181 19.6568 17.3521 19.7908C17.486 19.9247 17.6677 20 17.8571 20H19.2857C19.4752 20 19.6568 19.9247 19.7908 19.7908C19.9247 19.6568 20 19.4752 20 19.2857V17.8571C20 17.6677 19.9247 17.486 19.7908 17.3521C19.6568 17.2181 19.4752 17.1429 19.2857 17.1429ZM19.2857 4.28571H17.8571C17.6677 4.28571 17.486 4.36097 17.3521 4.49492C17.2181 4.62888 17.1429 4.81056 17.1429 5V6.42857C17.1429 6.61801 17.2181 6.79969 17.3521 6.93365C17.486 7.0676 17.6677 7.14286 17.8571 7.14286H19.2857C19.4752 7.14286 19.6568 7.0676 19.7908 6.93365C19.9247 6.79969 20 6.61801 20 6.42857V5C20 4.81056 19.9247 4.62888 19.7908 4.49492C19.6568 4.36097 19.4752 4.28571 19.2857 4.28571ZM19.2857 0H1.42857C1.04969 0 0.686328 0.15051 0.418419 0.418419C0.15051 0.686328 0 1.04969 0 1.42857L0 19.2857C0 19.4752 0.0752549 19.6568 0.209209 19.7908C0.343164 19.9247 0.524845 20 0.714286 20H2.14286C2.3323 20 2.51398 19.9247 2.64793 19.7908C2.78189 19.6568 2.85714 19.4752 2.85714 19.2857V2.85714H19.2857C19.4752 2.85714 19.6568 2.78189 19.7908 2.64793C19.9247 2.51398 20 2.3323 20 2.14286V0.714286C20 0.524845 19.9247 0.343164 19.7908 0.209209C19.6568 0.0752549 19.4752 0 19.2857 0Z" fill="#C10000"/>
</svg>
