<svg width="28" height="26" viewBox="0 0 28 26" fill="none" xmlns="http://www.w3.org/2000/svg">
<path d="M27.806 6.79252V22.4334C27.806 23.8726 26.6383 25.0402 25.1992 25.0402H2.60681C1.16763 25.0402 0 23.8726 0 22.4334V6.79252C0 5.35334 1.16763 4.18571 2.60681 4.18571H7.38596L8.05396 2.39896C8.43412 1.38339 9.40624 0.709961 10.4924 0.709961H17.3081C18.3943 0.709961 19.3664 1.38339 19.7466 2.39896L20.42 4.18571H25.1992C26.6383 4.18571 27.806 5.35334 27.806 6.79252ZM20.42 14.6129C20.42 11.0177 17.4982 8.09592 13.903 8.09592C10.3078 8.09592 7.38596 11.0177 7.38596 14.6129C7.38596 18.2082 10.3078 21.13 13.903 21.13C17.4982 21.13 20.42 18.2082 20.42 14.6129ZM18.6821 14.6129C18.6821 17.2469 16.5369 19.3921 13.903 19.3921C11.269 19.3921 9.12383 17.2469 9.12383 14.6129C9.12383 11.979 11.269 9.83379 13.903 9.83379C16.5369 9.83379 18.6821 11.979 18.6821 14.6129Z" fill="black"/>
</svg>
