<svg width="20" height="21" viewBox="0 0 20 21" fill="none" xmlns="http://www.w3.org/2000/svg">
<g clip-path="url(#clip0_197_1485)">
<path d="M8.4375 3.5H11.5625C12.082 3.5 12.5 3.91797 12.5 4.4375V11H15.9258C16.6211 11 16.9688 11.8398 16.4766 12.332L10.5352 18.2773C10.2422 18.5703 9.76172 18.5703 9.46875 18.2773L3.51953 12.332C3.02734 11.8398 3.375 11 4.07031 11H7.5V4.4375C7.5 3.91797 7.91797 3.5 8.4375 3.5ZM20 18.1875V22.5625C20 23.082 19.582 23.5 19.0625 23.5H0.9375C0.417969 23.5 0 23.082 0 22.5625V18.1875C0 17.668 0.417969 17.25 0.9375 17.25H6.66797L8.58203 19.1641C9.36719 19.9492 10.6328 19.9492 11.418 19.1641L13.332 17.25H19.0625C19.582 17.25 20 17.668 20 18.1875ZM15.1562 21.625C15.1562 21.1953 14.8047 20.8438 14.375 20.8438C13.9453 20.8438 13.5938 21.1953 13.5938 21.625C13.5938 22.0547 13.9453 22.4062 14.375 22.4062C14.8047 22.4062 15.1562 22.0547 15.1562 21.625ZM17.6562 21.625C17.6562 21.1953 17.3047 20.8438 16.875 20.8438C16.4453 20.8438 16.0938 21.1953 16.0938 21.625C16.0938 22.0547 16.4453 22.4062 16.875 22.4062C17.3047 22.4062 17.6562 22.0547 17.6562 21.625Z" fill="#424242"/>
</g>
<defs>
<clipPath id="clip0_197_1485">
<rect width="20" height="20" fill="white" transform="translate(0 0.5)"/>
</clipPath>
</defs>
</svg>
