<svg id="_3D-model-02_대지_1" data-name="3D-model-02_대지 1" xmlns="http://www.w3.org/2000/svg" width="19.668" height="19.668" viewBox="0 0 19.668 19.668">
  <g id="그룹_1246" data-name="그룹 1246" transform="translate(9.834 10.427)">
    <path id="패스_2574" data-name="패스 2574" d="M52.2,55.8l1.163-1.344-1.314-1.2Z" transform="translate(-51.552 -52.757)" fill="#444"/>
    <path id="패스_2575" data-name="패스 2575" d="M51.217,55.312a.524.524,0,0,1-.161-.027.5.5,0,0,1-.339-.447L50.568,52.3a.5.5,0,0,1,.844-.4l1.314,1.2a.5.5,0,0,1,.04.7L51.6,55.144A.53.53,0,0,1,51.217,55.312Zm.427-1.838,0,.071.03-.037Z" transform="translate(-50.567 -51.764)" fill="#444"/>
  </g>
  <path id="패스_2576" data-name="패스 2576" d="M30.574,44.748c-4.769,0-9.834-1.237-9.834-3.529S25.8,37.69,30.574,37.69a28.137,28.137,0,0,1,3.29.188A13.541,13.541,0,0,1,39.138,39.4a2.2,2.2,0,0,1,1.27,1.812c0,1.25-1.506,2.3-4.242,2.941a.5.5,0,0,1-.229-.981c2.393-.565,3.465-1.388,3.465-1.959,0-.3-.282-.635-.8-.958a12.758,12.758,0,0,0-4.857-1.378,26.844,26.844,0,0,0-3.169-.181c-5.468,0-8.826,1.469-8.826,2.521s3.358,2.521,8.826,2.521c.447,0,.891-.01,1.324-.03a.5.5,0,1,1,.047,1.008C31.5,44.738,31.035,44.748,30.574,44.748Z" transform="translate(-20.74 -31.993)" fill="#444"/>
  <g id="그룹_1247" data-name="그룹 1247" transform="translate(5.639 8.172)">
    <path id="패스_2577" data-name="패스 2577" d="M39.02,48.53l1.27,1.247,1.277-1.24Z" transform="translate(-38.515 -48.026)" fill="#444"/>
    <path id="패스_2578" data-name="패스 2578" d="M39.293,49.285a.5.5,0,0,1-.353-.145l-1.27-1.247a.5.5,0,0,1,.353-.864h0l2.544.007a.5.5,0,0,1,.35.867L39.64,49.141A.489.489,0,0,1,39.293,49.285Zm-.034-1.244.034.034.034-.034Z" transform="translate(-37.518 -47.03)" fill="#444"/>
  </g>
  <path id="패스_2579" data-name="패스 2579" d="M44.832,40.408c-1.3,0-2.369-1.61-3-4.531-.071-.329-.138-.676-.195-1.028a.5.5,0,1,1,.995-.161c.054.336.118.662.185.975.561,2.581,1.418,3.737,2.02,3.737.3,0,.635-.282.958-.8a12.7,12.7,0,0,0,1.378-4.857,26.886,26.886,0,0,0,.181-3.169c0-5.468-1.469-8.826-2.521-8.826-1.032,0-2.49,3.3-2.521,8.668a.5.5,0,0,1-.5.5h0a.5.5,0,0,1-.5-.508c.027-4.806,1.247-9.67,3.529-9.67s3.529,5.068,3.529,9.834a27.451,27.451,0,0,1-.192,3.29,13.541,13.541,0,0,1-1.526,5.273A2.183,2.183,0,0,1,44.832,40.408Z" transform="translate(-34.39 -20.74)" fill="#444"/>
</svg>
