<svg width="20" height="21" viewBox="0 0 20 21" fill="none" xmlns="http://www.w3.org/2000/svg">
<g clip-path="url(#clip0_197_1488)">
<path d="M0.625 11.75C0.28125 11.75 0 12.0312 0 12.375V13.625C0 13.9688 0.28125 14.25 0.625 14.25H5V11.75H0.625ZM19.7266 4.60156L15.9023 0.773438C15.7266 0.597656 15.4883 0.5 15.2383 0.5H15V5.5H20V5.26172C20 5.01562 19.9023 4.77734 19.7266 4.60156ZM13.75 5.8125V0.5H5.9375C5.41797 0.5 5 0.917969 5 1.4375V11.75H10V9.20312C10 8.64453 10.6758 8.36719 11.0703 8.76172L14.8047 12.5312C15.0625 12.793 15.0625 13.2109 14.8047 13.4688L11.0664 17.2344C10.6719 17.6289 9.99609 17.3516 9.99609 16.793V14.25H5V19.5625C5 20.082 5.41797 20.5 5.9375 20.5H19.0625C19.582 20.5 20 20.082 20 19.5625V6.75H14.6875C14.1719 6.75 13.75 6.32812 13.75 5.8125Z" fill="#424242"/>
</g>
<defs>
<clipPath id="clip0_197_1488">
<rect width="20" height="20" fill="white" transform="translate(0 0.5)"/>
</clipPath>
</defs>
</svg>
