<svg width="23" height="23" viewBox="0 0 23 23" fill="none" xmlns="http://www.w3.org/2000/svg">
<path d="M21.6562 6.5625H1.34375C1.13655 6.5625 0.937836 6.64481 0.791323 6.79132C0.64481 6.93784 0.5625 7.13655 0.5625 7.34375L0.5625 8.90625C0.5625 9.11345 0.64481 9.31216 0.791323 9.45868C0.937836 9.60519 1.13655 9.6875 1.34375 9.6875H21.6562C21.8635 9.6875 22.0622 9.60519 22.2087 9.45868C22.3552 9.31216 22.4375 9.11345 22.4375 8.90625V7.34375C22.4375 7.13655 22.3552 6.93784 22.2087 6.79132C22.0622 6.64481 21.8635 6.5625 21.6562 6.5625ZM21.6562 19.0625H1.34375C1.13655 19.0625 0.937836 19.1448 0.791323 19.2913C0.64481 19.4378 0.5625 19.6365 0.5625 19.8438L0.5625 21.4062C0.5625 21.6135 0.64481 21.8122 0.791323 21.9587C0.937836 22.1052 1.13655 22.1875 1.34375 22.1875H21.6562C21.8635 22.1875 22.0622 22.1052 22.2087 21.9587C22.3552 21.8122 22.4375 21.6135 22.4375 21.4062V19.8438C22.4375 19.6365 22.3552 19.4378 22.2087 19.2913C22.0622 19.1448 21.8635 19.0625 21.6562 19.0625ZM5.84082 3.4375H17.1597C17.2372 3.4375 17.314 3.42221 17.3857 3.39252C17.4573 3.36282 17.5224 3.31929 17.5773 3.26442C17.6321 3.20955 17.6756 3.14442 17.7052 3.07274C17.7348 3.00106 17.7501 2.92424 17.75 2.84668V0.902832C17.75 0.825309 17.7347 0.748544 17.7051 0.676922C17.6754 0.6053 17.6319 0.540222 17.5771 0.485405C17.5223 0.430587 17.4572 0.387103 17.3856 0.357437C17.314 0.32777 17.2372 0.3125 17.1597 0.3125H5.84082C5.76326 0.312436 5.68644 0.327658 5.61476 0.357296C5.54308 0.386934 5.47795 0.430408 5.42308 0.485232C5.36821 0.540055 5.32468 0.605155 5.29498 0.676809C5.26529 0.748463 5.25 0.825268 5.25 0.902832V2.84668C5.25 3.00338 5.31225 3.15365 5.42305 3.26445C5.53385 3.37525 5.68412 3.4375 5.84082 3.4375ZM17.1597 15.9375C17.2372 15.9375 17.314 15.9222 17.3857 15.8925C17.4573 15.8628 17.5224 15.8193 17.5773 15.7644C17.6321 15.7096 17.6756 15.6444 17.7052 15.5727C17.7348 15.5011 17.7501 15.4242 17.75 15.3467V13.4028C17.75 13.2463 17.6878 13.0961 17.5771 12.9854C17.4664 12.8747 17.3162 12.8125 17.1597 12.8125H5.84082C5.76326 12.8124 5.68644 12.8277 5.61476 12.8573C5.54308 12.8869 5.47795 12.9304 5.42308 12.9852C5.36821 13.0401 5.32468 13.1052 5.29498 13.1768C5.26529 13.2485 5.25 13.3253 5.25 13.4028V15.3467C5.25 15.4243 5.26528 15.5011 5.29497 15.5728C5.32467 15.6445 5.36818 15.7096 5.42305 15.7645C5.47791 15.8193 5.54304 15.8628 5.61472 15.8925C5.6864 15.9222 5.76323 15.9375 5.84082 15.9375H17.1597Z" fill="black"/>
</svg>
