<svg id="_3D-model-01_대지_1" data-name="3D-model-01_대지 1" xmlns="http://www.w3.org/2000/svg" width="18.538" height="18.535" viewBox="0 0 18.538 18.535">
  <path id="패스_2564" data-name="패스 2564" d="M49.009,44.747a.508.508,0,0,1-.509-.509V32.289a.509.509,0,0,1,1.018,0V44.238A.508.508,0,0,1,49.009,44.747Z" transform="translate(-39.74 -28.995)" fill="#444"/>
  <g id="그룹_1242" data-name="그룹 1242" transform="translate(6.836)">
    <path id="패스_2565" data-name="패스 2565" d="M48.177,27.855,46.254,25.07,44.33,27.855Z" transform="translate(-43.821 -24.561)" fill="#444"/>
    <path id="패스_2566" data-name="패스 2566" d="M47.185,27.373H43.338a.509.509,0,0,1-.421-.8l1.924-2.785a.5.5,0,0,1,.417-.221h0a.5.5,0,0,1,.417.221L47.6,26.576a.506.506,0,0,1,.031.526A.5.5,0,0,1,47.185,27.373Zm-2.877-1.018h1.907l-.953-1.381Z" transform="translate(-42.828 -23.57)" fill="#444"/>
  </g>
  <g id="그룹_1243" data-name="그룹 1243" transform="translate(6.838 14.731)">
    <path id="패스_2567" data-name="패스 2567" d="M44.33,68.5l1.924,2.782L48.177,68.5Z" transform="translate(-43.823 -67.988)" fill="#444"/>
    <path id="패스_2568" data-name="패스 2568" d="M45.266,70.793a.5.5,0,0,1-.417-.221l-1.924-2.785a.509.509,0,0,1,.421-.8h3.847a.509.509,0,0,1,.421.8L45.69,70.573A.526.526,0,0,1,45.266,70.793Zm-.953-2.782.953,1.381.953-1.381Z" transform="translate(-42.835 -66.99)" fill="#444"/>
  </g>
  <path id="패스_2569" data-name="패스 2569" d="M43.348,50.408H31.4a.509.509,0,0,1,0-1.018H43.348a.509.509,0,0,1,0,1.018Z" transform="translate(-28.105 -40.63)" fill="#444"/>
  <g id="그룹_1244" data-name="그룹 1244" transform="translate(14.735 6.836)">
    <path id="패스_2570" data-name="패스 2570" d="M67.61,49.067l2.782-1.924L67.61,45.22Z" transform="translate(-67.101 -44.711)" fill="#444"/>
    <path id="패스_2571" data-name="패스 2571" d="M66.619,48.584a.533.533,0,0,1-.237-.058.511.511,0,0,1-.271-.451V44.228a.509.509,0,0,1,.8-.421l2.785,1.924a.505.505,0,0,1,0,.835l-2.785,1.924A.474.474,0,0,1,66.619,48.584Zm.509-3.386V47.1l1.381-.953Z" transform="translate(-66.11 -43.718)" fill="#444"/>
  </g>
  <g id="그룹_1245" data-name="그룹 1245" transform="translate(0 6.838)">
    <path id="패스_2572" data-name="패스 2572" d="M26.972,45.22,24.19,47.144l2.782,1.924Z" transform="translate(-23.678 -44.713)" fill="#444"/>
    <path id="패스_2573" data-name="패스 2573" d="M25.974,48.589a.494.494,0,0,1-.288-.092L22.9,46.573a.505.505,0,0,1,0-.835l2.785-1.924a.509.509,0,0,1,.8.421v3.847a.511.511,0,0,1-.271.451A.578.578,0,0,1,25.974,48.589Zm-1.89-2.433,1.381.953V45.2Z" transform="translate(-22.68 -43.725)" fill="#444"/>
  </g>
</svg>
