<svg id="_3D-model-05_대지_1" data-name="3D-model-05_대지 1" xmlns="http://www.w3.org/2000/svg" width="23.333" height="22.087" viewBox="0 0 23.333 22.087">
  <path id="패스_2461" data-name="패스 2461" d="M39.369,20.072A.517.517,0,0,0,39.623,20a6.06,6.06,0,0,1,.845-.406.507.507,0,0,0-.365-.946,6.633,6.633,0,0,0-.987.476.5.5,0,0,0-.182.693A.51.51,0,0,0,39.369,20.072Z" transform="translate(-30.961 -18.186)" fill="#444"/>
  <path id="패스_2462" data-name="패스 2462" d="M32.114,26.263a.492.492,0,0,0,.253.068.507.507,0,0,0,.439-.253,6.03,6.03,0,0,1,.531-.774.507.507,0,0,0-.791-.635,6.592,6.592,0,0,0-.618.906A.5.5,0,0,0,32.114,26.263Z" transform="translate(-26.325 -22.065)" fill="#444"/>
  <path id="패스_2463" data-name="패스 2463" d="M65.552,28.467a.511.511,0,0,0,.473.324.5.5,0,0,0,.182-.034.506.506,0,0,0,.287-.656,7.164,7.164,0,0,0-.476-.987.507.507,0,1,0-.875.51A5.525,5.525,0,0,1,65.552,28.467Z" transform="translate(-48.314 -23.645)" fill="#444"/>
  <path id="패스_2464" data-name="패스 2464" d="M48.987,18.35a5.906,5.906,0,0,1,.916.071.6.6,0,0,0,.078.007.507.507,0,0,0,.078-1.007,7.046,7.046,0,0,0-1.071-.081h-.02a.5.5,0,0,0-.5.507A.512.512,0,0,0,48.987,18.35Z" transform="translate(-37.322 -17.34)" fill="#444"/>
  <path id="패스_2465" data-name="패스 2465" d="M29.833,35.573a.512.512,0,0,0,.507-.514,6.026,6.026,0,0,1,.071-.923.506.506,0,0,0-1-.155,7.168,7.168,0,0,0-.081,1.078v.014A.5.5,0,0,0,29.833,35.573Z" transform="translate(-24.649 -28.074)" fill="#444"/>
  <path id="패스_2466" data-name="패스 2466" d="M58.289,20.8a6.006,6.006,0,0,1,.774.527.513.513,0,0,0,.318.112.507.507,0,0,0,.318-.9,6.908,6.908,0,0,0-.906-.618.508.508,0,1,0-.5.882Z" transform="translate(-43.653 -19.004)" fill="#444"/>
  <path id="패스_2467" data-name="패스 2467" d="M38.046,52.08a6.03,6.03,0,0,1-.774-.531.507.507,0,0,0-.639.787,6.932,6.932,0,0,0,.906.622.492.492,0,0,0,.253.068.507.507,0,0,0,.253-.946Z" transform="translate(-29.361 -39.914)" fill="#444"/>
  <path id="패스_2468" data-name="패스 2468" d="M27.86,44.786a.517.517,0,0,0,.253-.068.5.5,0,0,0,.182-.693,6.06,6.06,0,0,1-.406-.845.508.508,0,0,0-.656-.291.5.5,0,0,0-.267.243.49.49,0,0,0-.027-.24.507.507,0,0,0-.656-.291,7.213,7.213,0,0,0-.977.466l-.041.024a.5.5,0,0,0-.162.686.505.505,0,0,0,.439.243.52.52,0,0,0,.26-.071,6.248,6.248,0,0,1,.845-.406.5.5,0,0,0,.267-.243.49.49,0,0,0,.027.24,6.965,6.965,0,0,0,.473.987A.51.51,0,0,0,27.86,44.786Z" transform="translate(-21.804 -34.043)" fill="#444"/>
  <path id="패스_2469" data-name="패스 2469" d="M19.421,48.56a.506.506,0,0,0-.713.078,6.908,6.908,0,0,0-.618.906.508.508,0,0,0,.189.693.515.515,0,0,0,.25.068.5.5,0,0,0,.439-.253,6.37,6.37,0,0,1,.527-.774A.512.512,0,0,0,19.421,48.56Z" transform="translate(-17.164 -37.935)" fill="#444"/>
  <path id="패스_2470" data-name="패스 2470" d="M42.732,77.3a6.148,6.148,0,0,1-.838.4.507.507,0,0,0,.182.98.5.5,0,0,0,.182-.034,6.787,6.787,0,0,0,.96-.46s.017-.01.02-.01l-.247-.443Z" transform="translate(-32.752 -57.037)" fill="#444"/>
  <path id="패스_2471" data-name="패스 2471" d="M33.282,79.522l-.057,0a6.114,6.114,0,0,1-.929-.071.506.506,0,0,0-.155,1,6.742,6.742,0,0,0,1.075.084h.017a.506.506,0,0,0,.507-.507A.514.514,0,0,0,33.282,79.522Z" transform="translate(-26.226 -58.455)" fill="#444"/>
  <path id="패스_2472" data-name="패스 2472" d="M36.258,41.378a7.389,7.389,0,0,0-1.092-.088h0a.507.507,0,0,0,0,1.014,5.825,5.825,0,0,1,.936.074.658.658,0,0,0,.081.007.506.506,0,0,0,.074-1.007Z" transform="translate(-28.178 -33.196)" fill="#444"/>
  <path id="패스_2473" data-name="패스 2473" d="M17.094,67.433a.508.508,0,0,0-.291.656,6.9,6.9,0,0,0,.473.983l.443-.25.433-.267a6.049,6.049,0,0,1-.4-.831A.513.513,0,0,0,17.094,67.433Z" transform="translate(-16.333 -50.482)" fill="#444"/>
  <path id="패스_2474" data-name="패스 2474" d="M24.217,76.067a6.371,6.371,0,0,1-.774-.527.507.507,0,0,0-.635.791,6.906,6.906,0,0,0,.906.618.492.492,0,0,0,.253.068.5.5,0,0,0,.439-.253A.512.512,0,0,0,24.217,76.067Z" transform="translate(-20.206 -55.798)" fill="#444"/>
  <path id="패스_2475" data-name="패스 2475" d="M16.494,59.041a6.1,6.1,0,0,1,.071-.926.506.506,0,0,0-1-.155,6.831,6.831,0,0,0-.084,1.092h0a.5.5,0,0,0,.507.5A.509.509,0,0,0,16.494,59.041Z" transform="translate(-15.48 -43.949)" fill="#444"/>
  <path id="패스_2476" data-name="패스 2476" d="M53.648,39.045a6.9,6.9,0,0,0-1.47-.629.51.51,0,0,0,.2-.324A6.923,6.923,0,0,0,52.465,37v-.027a.5.5,0,0,0-.507-.493.518.518,0,0,0-.507.52,6.169,6.169,0,0,1-.071.936.507.507,0,0,0,.044.3A7.013,7.013,0,0,0,45.379,40a.512.512,0,0,0-.182-.331,6.592,6.592,0,0,0-.906-.618.507.507,0,0,0-.507.879,6.031,6.031,0,0,1,.774.531.511.511,0,0,0,.287.108,6.988,6.988,0,1,0,8.8-1.521Z" transform="translate(-33.808 -30.012)" fill="#444"/>
</svg>
