<svg id="_3D-model-04_대지_1" data-name="3D-model-04_대지 1" xmlns="http://www.w3.org/2000/svg" width="23.325" height="22.08" viewBox="0 0 23.325 22.08">
  <path id="패스_2458" data-name="패스 2458" d="M36.3,31.3a6.99,6.99,0,1,1,6.99-6.99A7,7,0,0,1,36.3,31.3Zm0-12.962a5.976,5.976,0,1,0,5.976,5.976A5.983,5.983,0,0,0,36.3,18.337Z" transform="translate(-24.636 -17.32)" fill="#444"/>
  <path id="패스_2459" data-name="패스 2459" d="M22.472,55.281a7.152,7.152,0,0,1-1.821-.24,6.99,6.99,0,0,1-1.686-12.8h0a6.989,6.989,0,1,1,3.507,13.043Zm-3-12.165A5.975,5.975,0,1,0,27.637,45.3a5.982,5.982,0,0,0-8.162-2.186Z" transform="translate(-15.473 -33.201)" fill="#444"/>
  <path id="패스_2460" data-name="패스 2460" d="M50.133,55.269a7.241,7.241,0,0,1-.9-.057.507.507,0,0,1,.128-1.007,6.137,6.137,0,0,0,.932.047.5.5,0,0,1,.52.493.506.506,0,0,1-.493.52C50.265,55.269,50.2,55.269,50.133,55.269Zm2.483-.493a.508.508,0,0,1-.2-.976,5.818,5.818,0,0,0,.831-.422.506.506,0,0,1,.527.865,7.107,7.107,0,0,1-.973.493A.406.406,0,0,1,52.616,54.776Zm-5.55-.28a.516.516,0,0,1-.24-.061l-.182-.1a7.289,7.289,0,0,1-.9-.615.507.507,0,0,1,.635-.791,5.969,5.969,0,0,0,.77.527c.054.03.1.057.155.088a.507.507,0,0,1-.24.953Zm8.2-1.747a.5.5,0,0,1-.307-.1.5.5,0,0,1-.091-.709,6.348,6.348,0,0,0,.446-.666l.064-.118a.507.507,0,1,1,.888.49l-.074.135a6.768,6.768,0,0,1-.52.777A.517.517,0,0,1,55.268,52.749Zm-10.733-.706a.507.507,0,0,1-.439-.253,7.106,7.106,0,0,1-.473-.983.507.507,0,1,1,.946-.365,5.825,5.825,0,0,0,.4.841.505.505,0,0,1-.186.693A.514.514,0,0,1,44.535,52.043Zm12.027-2.372a.5.5,0,0,1-.071,0,.5.5,0,0,1-.432-.571,5.859,5.859,0,0,0,.054-.807v-.125a.507.507,0,0,1,1.013-.02v.145a6.845,6.845,0,0,1-.064.946A.5.5,0,0,1,56.562,49.671Zm-12.9-.851a.506.506,0,0,1-.507-.507V48.29a7.258,7.258,0,0,1,.078-1.061.507.507,0,1,1,1,.152,6.108,6.108,0,0,0-.068.9v.037A.506.506,0,0,1,43.657,48.82Zm12.489-2.463a.5.5,0,0,1-.47-.318,6,6,0,0,0-.416-.834.508.508,0,1,1,.872-.52,7.106,7.106,0,0,1,.486.976.505.505,0,0,1-.28.659A.556.556,0,0,1,56.146,46.357ZM44.5,45.587a.48.48,0,0,1-.25-.068.508.508,0,0,1-.189-.693l.024-.041a7.562,7.562,0,0,1,.584-.861.507.507,0,1,1,.794.632,6.132,6.132,0,0,0-.5.736l-.024.041A.5.5,0,0,1,44.5,45.587Zm9.638-1.9a.491.491,0,0,1-.311-.108,5.941,5.941,0,0,0-.7-.473l-.078-.044a.507.507,0,1,1,.493-.885l.091.051a7.519,7.519,0,0,1,.818.551.509.509,0,0,1,.088.713A.5.5,0,0,1,54.139,43.689Zm-7.3-.483a.506.506,0,0,1-.257-.943,7.1,7.1,0,0,1,.98-.48.507.507,0,0,1,.375.943,6.2,6.2,0,0,0-.838.409A.5.5,0,0,1,46.842,43.205Zm4.23-.834A.29.29,0,0,1,51,42.364a5.976,5.976,0,0,0-.851-.061h-.081a.5.5,0,0,1-.513-.5.506.506,0,0,1,.5-.513h.091a6.991,6.991,0,0,1,1,.071.508.508,0,0,1-.068,1.01Z" transform="translate(-33.8 -33.192)" fill="#444"/>
</svg>
