<svg width="41" height="29" viewBox="0 0 41 29" fill="none" xmlns="http://www.w3.org/2000/svg">
<path id="Vector" d="M34.44 12.5969C34.7027 11.9042 34.85 11.1469 34.85 10.3571C34.85 6.92634 32.0953 4.14286 28.7 4.14286C27.438 4.14286 26.2592 4.53125 25.2855 5.19152C23.5109 2.08437 20.1989 0 16.4 0C10.7369 0 6.15 4.63482 6.15 10.3571C6.15 10.5319 6.15641 10.7067 6.16281 10.8815C2.57531 12.1567 0 15.6134 0 19.6786C0 24.8248 4.13203 29 9.225 29H32.8C37.3292 29 41 25.2908 41 20.7143C41 16.7074 38.1812 13.3607 34.44 12.5969ZM25.2022 16.5714H21.0125V23.8214C21.0125 24.3911 20.5513 24.8571 19.9875 24.8571H16.9125C16.3487 24.8571 15.8875 24.3911 15.8875 23.8214V16.5714H11.6978C10.7817 16.5714 10.3269 15.458 10.9739 14.8042L17.7261 7.98147C18.1233 7.58013 18.7767 7.58013 19.1739 7.98147L25.9261 14.8042C26.5731 15.458 26.1119 16.5714 25.2022 16.5714Z" fill="black"/>
</svg>
