<svg width="20" height="21" viewBox="0 0 20 21" fill="none" xmlns="http://www.w3.org/2000/svg">
<path d="M17.8571 20.5H2.14286C0.959821 20.5 0 19.5402 0 18.3571V2.64286C0 1.45982 0.959821 0.5 2.14286 0.5H17.8571C19.0402 0.5 20 1.45982 20 2.64286V18.3571C20 19.5402 19.0402 20.5 17.8571 20.5ZM10.6295 7.01339L4.57143 13.0714L4.29018 15.6205C4.25446 15.9598 4.54018 16.25 4.88393 16.2143L7.43304 15.933L13.4911 9.875C13.5938 9.77232 13.5938 9.60268 13.4911 9.49554L11.0134 7.01786C10.9018 6.91071 10.7321 6.91071 10.6295 7.01339ZM15.4018 6.44196L14.058 5.09821C13.6384 4.67857 12.9598 4.67857 12.5446 5.09821L11.5134 6.12946C11.4107 6.23214 11.4107 6.40179 11.5134 6.50893L13.9911 8.98661C14.0938 9.08929 14.2634 9.08929 14.3705 8.98661L15.4018 7.95536C15.817 7.54018 15.817 6.86161 15.4018 6.44196Z" fill="black"/>
</svg>
