<svg id="_3D-model-03_대지_1" data-name="3D-model-03_대지 1" xmlns="http://www.w3.org/2000/svg" width="17.596" height="17.598" viewBox="0 0 17.596 17.598">
  <path id="_3D-model-03_대지_1-2" data-name="3D-model-03_대지 1" d="M35.567,33.476l-3.194-3.194a.863.863,0,0,0-1.173-.041l-.557-.557a7.006,7.006,0,1,0-.969.969l.557.557a.864.864,0,0,0,.041,1.173l3.194,3.194a.862.862,0,0,0,1.223,0l.875-.875A.869.869,0,0,0,35.567,33.476ZM21.2,29.271a5.7,5.7,0,1,1,8.064,0A5.7,5.7,0,0,1,21.2,29.271Z" transform="translate(-18.223 -18.233)" fill="#444"/>
</svg>
