<svg width="20" height="15" viewBox="0 0 20 15" fill="none" xmlns="http://www.w3.org/2000/svg">
<path d="M19.6211 4.8605C19.7734 4.74167 20 4.85283 20 5.04066V12.8795C20 13.8953 19.1602 14.7195 18.125 14.7195H1.875C0.839844 14.7195 0 13.8953 0 12.8795V5.04449C0 4.85283 0.222656 4.7455 0.378906 4.86433C1.25391 5.53131 2.41406 6.37844 6.39844 9.21884C7.22266 9.80916 8.61328 11.0511 10 11.0434C11.3945 11.0549 12.8125 9.78616 13.6055 9.21884C17.5898 6.37844 18.7461 5.52747 19.6211 4.8605ZM10 9.81299C10.9062 9.82832 12.2109 8.69369 12.8672 8.22604C18.0508 4.53467 18.4453 4.21269 19.6406 3.29272C19.8672 3.12022 20 2.8519 20 2.56824V1.83994C20 0.824138 19.1602 0 18.125 0H1.875C0.839844 0 0 0.824138 0 1.83994V2.56824C0 2.8519 0.132812 3.11639 0.359375 3.29272C1.55469 4.20885 1.94922 4.53467 7.13281 8.22604C7.78906 8.69369 9.09375 9.82832 10 9.81299Z" fill="#A4A4A4"/>
</svg>
