<svg width="20" height="18" viewBox="0 0 20 18" fill="none" xmlns="http://www.w3.org/2000/svg">
<path d="M17.8571 9.00002H6.78571V5.37541C6.78571 3.98323 8.20089 2.82659 9.96875 2.81253C11.7545 2.79847 13.2143 3.94104 13.2143 5.34377V5.90627C13.2143 6.37385 13.692 6.75002 14.2857 6.75002H15.7143C16.308 6.75002 16.7857 6.37385 16.7857 5.90627V5.34377C16.7857 2.39066 13.7277 -0.0105122 9.97768 3.46119e-05C6.22768 0.0105815 3.21429 2.44339 3.21429 5.39651V9.00002H2.14286C0.959821 9.00002 0 9.75587 0 10.6875V16.3125C0 17.2441 0.959821 18 2.14286 18H17.8571C19.0402 18 20 17.2441 20 16.3125V10.6875C20 9.75587 19.0402 9.00002 17.8571 9.00002ZM11.7857 14.3438C11.7857 15.1207 10.9866 15.75 10 15.75C9.01339 15.75 8.21429 15.1207 8.21429 14.3438V12.6563C8.21429 11.8793 9.01339 11.25 10 11.25C10.9866 11.25 11.7857 11.8793 11.7857 12.6563V14.3438Z" fill="#A4A4A4"/>
</svg>
